<svg width="232" height="473" xmlns="http://www.w3.org/2000/svg" version="1.1" xml:space="preserve">
 <metadata id="metadata8">image/svg+xml</metadata>
 <defs id="defs6">
  <clipPath id="clipPath18">
   <path d="m-81.41636,15206.74482l0,-14670l9642.59,0l0,14670l-9642.59,0z" id="path20"/>
  </clipPath>
 </defs>
 <g>
  <title>Layer 1</title>
  <g transform="matrix(1.25 0 0 -1.25 0 4865)" id="g10">
   <g transform="translate(-1872.03 3376.06) scale(0.265303 0.265303)" id="g12">
    <g id="g14">
     <g clip-path="url(#clipPath18)" id="g16">
      <path d="m4378.42364,13016.84482l-407.88,0l0,2139.6c0,27.8 -21.67,50.3 -49.41,50.3l-3502.976,0c-27.742,0 -51.031,-22.5 -51.031,-50.3l0,-2139.6l-432.6641,0c-8.32812,0 -15.8789,-6.8 -15.8789,-15.1l0,-18.9c0,-8.3 7.55078,-15 15.8789,-15l4443.9611,0c8.33,0 14.28,6.7 14.28,15l0,18.9c0,8.3 -5.95,15.1 -14.28,15.1" id="path22" fill-rule="evenodd" fill="#575454"/>
      <path d="m514.92764,12869.84482l3305.716,0c451.18,0 572.85,82.9 572.85,82.9l-4451.492,0c0,0 121.68,-82.9 572.926,-82.9" id="path24" fill-rule="evenodd" fill="#575454"/>
      <path d="m2156.44364,15161.54482c18.74,0 33.93,-15.2 33.93,-34c0,-18.7 -15.19,-33.9 -33.93,-33.9c-18.73,0 -33.92,15.2 -33.92,33.9c0,18.8 15.19,34 33.92,34" id="path26" fill-rule="evenodd" fill="#918f90"/>
      <path d="m558.30264,13173.84482l3196.27,0l0,1850.73l-3196.27,0l0,-1850.73z" id="path28" fill-rule="evenodd" fill="#ffffff"/>
      <path d="m5682.58364,12869.84482l3305.73,0c451.18,0 572.86,82.9 572.86,82.9l-4451.51,0c0,0 121.67,-82.9 572.92,-82.9" id="path30" fill-rule="evenodd" fill="#231f20"/>
      <path d="m8919.60364,13175.14482l-3196.34,0l0,1850.7l3196.34,0l0,-1850.7zm-1595.5,1986.4c18.74,0 33.93,-15.2 33.93,-34c0,-18.7 -15.19,-33.9 -33.93,-33.9c-18.73,0 -33.92,15.2 -33.92,33.9c0,18.8 15.19,34 33.92,34zm2221.99,-2144.7l-407.87,0l0,2139.6c0,27.8 -21.68,50.3 -49.42,50.3l-3502.97,0c-27.74,0 -51.04,-22.5 -51.04,-50.3l0,-2139.6l-432.67,0c-8.33,0 -15.87,-6.8 -15.87,-15.1l0,-18.9c0,-8.3 7.54,-15 15.87,-15l4443.97,0c8.33,0 14.28,6.7 14.28,15l0,18.9c0,8.3 -5.95,15.1 -14.28,15.1" id="path32" fill-rule="evenodd" fill="#231f20"/>
      <path d="m4127.76364,11512.84482l-3942.645,0c-31.226,0 -55.457,-27.8 -55.457,-59.1l0,-2352.01c0,-31.21 24.231,-53.98 55.457,-53.98l1618.105,0l0,-290.23l-0.11,0l-206.83,-184.13c-7.43,-2.56 -12.79,-9.72 -12.79,-17.94c0,-10.44 8.53,-19 19.05,-19l1111.54,-0.04c10.53,0 19.06,9.05 19.06,19.49c0,4.86 -1.9,9.39 -4.94,13.16l1.8,0l-214.39,185.86l0,292.83l1612.15,0c31.25,0 57.63,22.77 57.63,53.98l0,2352.01c0,31.3 -26.38,59.1 -57.63,59.1" id="path34" fill-rule="evenodd" fill="#575454"/>
      <path d="m280.43564,9231.77482l3754.19,0l0,2103.25l-3754.19,0l0,-2103.25z" id="path36" fill-rule="evenodd" fill="#ffffff"/>
      <path d="m9281.45364,9232.45482l-3754.19,0l0,2103.29l3754.19,0l0,-2103.29zm93.14,2280.39l-3942.66,0c-31.21,0 -55.45,-28.1 -55.45,-59.3l0,-2352.07c0,-31.21 24.24,-53.72 55.45,-53.72l1618.11,0l0,-290.23l-0.11,0l-206.82,-184.24c-7.43,-2.6 -12.78,-9.8 -12.78,-18.06c0,-10.44 8.52,-19.03 19.04,-19.03l1111.55,-0.04c10.52,0 19.04,9.2 19.04,19.6c0,4.86 -1.89,9.54 -4.94,13.31l1.81,0l-214.4,185.59l0,293.1l1612.16,0c31.24,0 57.63,22.51 57.63,53.72l0,2352.07c0,31.2 -26.39,59.3 -57.63,59.3" id="path38" fill-rule="evenodd" fill="#231f20"/>
      <path d="m1385.34364,6631.58482l1543.67,0c41.63,0 74.67,-33.74 74.67,-75.39l0.24,-2053.16c0,-41.65 -33.28,-72.56 -74.91,-72.56l-1543.67,0.11c-41.63,0 -74.21,30.09 -74.21,71.73l0.36,2053.88c0,41.65 32.22,75.39 73.85,75.39" id="path40" fill-rule="evenodd" fill="#575454"/>
      <path d="m1479.08364,6428.11482l1356.89,0.15l-0.12,-1816.9l-1356.77,-0.04l0,1816.79" id="path42" fill-rule="evenodd" fill="#ffffff"/>
      <path d="m2157.53364,6535.65482c11.13,0 20.16,-9.05 20.16,-20.17c0,-11.12 -9.03,-20.16 -20.16,-20.16c-11.14,0 -20.16,9.04 -20.16,20.16c0,11.12 9.02,20.17 20.16,20.17" id="path44" fill-rule="evenodd" fill="#abaaaa"/>
      <path d="m2157.53364,4562.92482c27.86,0 50.44,-22.61 50.44,-50.47c0,-27.85 -22.58,-50.43 -50.44,-50.43c-27.86,0 -50.45,22.58 -50.45,50.43c0,27.86 22.59,50.47 50.45,50.47" id="path46" fill-rule="evenodd" fill="#656263"/>
      <path d="m2148.72364,4536.54482l17.61,0c8.17,0 14.79,-6.64 14.79,-14.78l0,-17.6c0,-8.18 -6.62,-14.81 -14.79,-14.81l-17.61,0c-8.17,0 -14.78,6.63 -14.78,14.81l0,17.6c0,8.14 6.61,14.78 14.78,14.78" id="path48" fill-rule="evenodd" fill="#9c9a9b"/>
      <path d="m8082.67364,4611.36482l-1356.79,-0.04l0,1816.79l1356.9,0.15l-0.11,-1816.9zm-678.32,-149.34c-27.86,0 -50.43,22.58 -50.43,50.43c0,27.86 22.57,50.47 50.43,50.47c27.85,0 50.43,-22.61 50.43,-50.47c0,-27.85 -22.58,-50.43 -50.43,-50.43zm0,2073.63c11.12,0 20.17,-9.05 20.17,-20.17c0,-11.12 -9.05,-20.16 -20.17,-20.16c-11.12,0 -20.16,9.04 -20.16,20.16c0,11.12 9.04,20.17 20.16,20.17zm846.16,20.58c0,41.65 -33.05,75.42 -74.66,75.42l-1543.67,0c-41.65,0 -73.88,-33.77 -73.88,-75.42l-0.34,-2053.92c0,-41.61 32.57,-71.73 74.22,-71.73l1543.67,-0.11c41.61,0 74.89,30.95 74.89,72.56l-0.23,2053.2" id="path50" fill-rule="evenodd" fill="#231f20"/>
      <path d="m7430.74364,4521.16482c0,8.14 -6.64,14.78 -14.78,14.78l-19.45,0c-8.14,0 -14.77,-6.64 -14.77,-14.78l0,-19.45c0,-8.14 6.63,-14.77 14.77,-14.77l19.45,0c8.14,0 14.78,6.63 14.78,14.77l0,19.45" id="path52" fill-rule="evenodd" fill="#231f20"/>
      <path d="m1903.63364,1931.26482l507.11,0c41.63,0 74.74,-33.74 74.74,-75.39l0,-1246.0792c0,-41.6133 -33.11,-72.93752 -74.74,-72.93752l-507.11,0c-41.64,0 -74.06,30.38282 -74.06,71.99222l0.07,1246.6845c0,41.62 32.35,75.73 73.99,75.73" id="path54" fill-rule="evenodd" fill="#575454"/>
      <path d="m2157.53364,699.42882c23.32,0 42.22,-18.922 42.22,-42.254c0,-23.2933 -18.9,-42.2152 -42.22,-42.2152c-23.33,0 -42.23,18.9219 -42.23,42.2152c0,23.332 18.9,42.254 42.23,42.254" id="path56" fill-rule="evenodd" fill="#656263"/>
      <path d="m2150.15364,677.33882l14.75,0c6.83,0 12.38,-5.539 12.38,-12.364l0,-14.738c0,-6.859 -5.55,-12.398 -12.38,-12.398l-14.75,0c-6.83,0 -12.37,5.539 -12.37,12.398l0,14.738c0,6.825 5.54,12.364 12.37,12.364" id="path58" fill-rule="evenodd" fill="#9c9a9b"/>
      <path d="m1870.99364,1763.00482l572.63,0.22l0.44,-999.156l-573.07,0.078l0,998.858" id="path60" fill-rule="evenodd" fill="#ffffff"/>
      <path d="m2098.31364,1838.42482l118.43,0c4.61,0 8.35,-3.43 8.35,-8.03c0,-4.6 -3.74,-7.08 -8.35,-7.08l-118.43,0c-4.61,0 -8.34,2.48 -8.34,7.08c0,4.6 3.73,8.03 8.34,8.03" id="path62" fill-rule="evenodd" fill="#abaaaa"/>
      <path d="m2157.53364,1896.99482c4.6,0 8.34,-3.73 8.34,-8.32c0,-4.64 -3.74,-8.37 -8.34,-8.37c-4.61,0 -8.34,3.73 -8.34,8.37c0,4.59 3.73,8.32 8.34,8.32" id="path64" fill-rule="evenodd" fill="#abaaaa"/>
      <path d="m7419.43364,663.84682c0,6.82 -5.54,12.363 -12.37,12.363l-12.96,0c-6.82,0 -12.36,-5.543 -12.36,-12.363l0,-12.969c0,-6.821 5.54,-12.363 12.36,-12.363l12.96,0c6.83,0 12.37,5.542 12.37,12.363l0,12.969" id="path66" fill-rule="evenodd" fill="#231f20"/>
      <path d="m7117.88364,764.14682l0,998.858l572.22,0.22l0.64,-999.156l-572.86,0.078zm285.72,-149.1872c-23.34,0 -42.26,18.9219 -42.26,42.2152c0,23.332 18.92,42.254 42.26,42.254c23.29,0 42.21,-18.922 42.21,-42.254c0,-23.2933 -18.92,-42.2152 -42.21,-42.2152zm-59.22,1222.1852l118.43,0c4.6,0 8.33,-3.39 8.33,-8.03c0,-4.6 -3.73,-7.05 -8.33,-7.05l-118.43,0c-4.64,0 -8.37,2.45 -8.37,7.05c0,4.64 3.73,8.03 8.37,8.03zm59.22,59.85c4.6,0 8.33,-3.73 8.33,-8.32c0,-4.64 -3.73,-8.37 -8.33,-8.37c-4.64,0 -8.37,3.73 -8.37,8.37c0,4.59 3.73,8.32 8.37,8.32zm253.22,34.38l-507.12,0c-41.65,0 -73.99,-34.15 -73.99,-75.8l-0.08,-1246.7245c0,-41.6485 32.42,-72.1055 74.07,-72.1055l507.12,0c41.61,0 75.46,31.4375 75.46,73.0508l0,1246.0792c0,41.65 -33.85,75.5 -75.46,75.5" id="path68" fill-rule="evenodd" fill="#231f20"/>
     </g>
    </g>
   </g>
  </g>
 </g>
</svg>